<svg xmlns="http://www.w3.org/2000/svg" viewBox="0 0 64 64">
  <path d="M8 44c0-2 1-4 3-5l10-7c2-1.5 4-3 5-5l4-8c1-2 3-3 5-3h6c2 0 3.5 1 4 3l2 6c.5 1.5 2 3 4 3h5c3 0 5 2.5 5 5.5S59 38 56 38h-3l1 4c.5 2-.5 4-2.5 4.5l-6 1.5c-1 .3-2 .3-3 0l-8-2c-1-.3-2-.3-3 0l-8 2c-1 .3-2 .3-3 0L10 45c-1.2-.5-2-1.5-2-3z" fill="#3B82F6"/>
  <circle cx="16" cy="42" r="1.5" fill="#fff" opacity=".5"/>
  <circle cx="22" cy="40" r="1.5" fill="#fff" opacity=".5"/>
  <circle cx="28" cy="42" r="1.5" fill="#fff" opacity=".5"/>
</svg>
